{
    "asset" : {
        "generator" : "Khronos glTF Blender I/O v0.9.36",
        "version" : "2.0"
    },
    "scene" : 0,
    "scenes" : [
        {
            "name" : "Scene",
            "nodes" : [
                0
            ]
        }
    ],
    "nodes" : [
        {
            "mesh" : 0,
            "name" : "Mimas"
        }
    ],
    "materials" : [
        {
            "name" : "Mimas_mat",
            "normalTexture" : {
                "index" : 0,
                "texCoord" : 0
            },
            "pbrMetallicRoughness" : {
                "baseColorTexture" : {
                    "index" : 1,
                    "texCoord" : 0
                },
                "metallicFactor" : 0,
                "roughnessFactor" : 0.800000011920929
            }
        }
    ],
    "meshes" : [
        {
            "name" : "Group1",
            "primitives" : [
                {
                    "attributes" : {
                        "POSITION" : 0,
                        "NORMAL" : 1,
                        "TEXCOORD_0" : 2
                    },
                    "indices" : 3,
                    "material" : 0
                }
            ]
        }
    ],
    "textures" : [
        {
            "source" : 0
        },
        {
            "source" : 1
        }
    ],
    "images" : [
        {
            "mimeType" : "image/png",
            "name" : "Mimas_norm",
            "uri" : "Mimas_norm.png"
        },
        {
            "mimeType" : "image/jpeg",
            "name" : "Mimas_diff",
            "uri" : "Mimas_diff.jpg"
        }
    ],
    "accessors" : [
        {
            "bufferView" : 0,
            "componentType" : 5126,
            "count" : 5559,
            "max" : [
                206.6704559326172,
                195.95350646972656,
                188.65682983398438
            ],
            "min" : [
                -208.92958068847656,
                -197.44651794433594,
                -192.54318237304688
            ],
            "type" : "VEC3"
        },
        {
            "bufferView" : 1,
            "componentType" : 5126,
            "count" : 5559,
            "type" : "VEC3"
        },
        {
            "bufferView" : 2,
            "componentType" : 5126,
            "count" : 5559,
            "type" : "VEC2"
        },
        {
            "bufferView" : 3,
            "componentType" : 5123,
            "count" : 32790,
            "type" : "SCALAR"
        }
    ],
    "bufferViews" : [
        {
            "buffer" : 0,
            "byteLength" : 66708,
            "byteOffset" : 0
        },
        {
            "buffer" : 0,
            "byteLength" : 66708,
            "byteOffset" : 66708
        },
        {
            "buffer" : 0,
            "byteLength" : 44472,
            "byteOffset" : 133416
        },
        {
            "buffer" : 0,
            "byteLength" : 65580,
            "byteOffset" : 177888
        }
    ],
    "buffers" : [
        {
            "byteLength" : 243468,
            "uri" : "mimas.bin"
        }
    ]
}
